<mxfile host="app.diagrams.net" modified="2023-10-10T12:29:45.803Z" agent="Mozilla/5.0 (Windows NT 10.0; Win64; x64) AppleWebKit/537.36 (KHTML, like Gecko) Chrome/117.0.0.0 Safari/537.36" etag="APlHgucxfHwH3FImdEFN" version="22.0.4" type="device">
  <diagram name="Page-1" id="zMLHnm0AqeNoXj64P6Pg">
    <mxGraphModel dx="1221" dy="622" grid="1" gridSize="10" guides="1" tooltips="1" connect="1" arrows="1" fold="1" page="1" pageScale="1" pageWidth="827" pageHeight="1169" math="0" shadow="0">
      <root>
        <mxCell id="0" />
        <mxCell id="1" parent="0" />
        <mxCell id="Ho8UqyRTnV_DZ7ehBOYZ-3" value="" style="rounded=0;whiteSpace=wrap;html=1;fillColor=#e1d5e7;strokeColor=#9673a6;" vertex="1" parent="1">
          <mxGeometry x="150" y="50" width="690" height="320" as="geometry" />
        </mxCell>
        <mxCell id="Kpnyt2prjJ4kasoExcNX-1" value="" style="rounded=0;whiteSpace=wrap;html=1;fillColor=#dae8fc;strokeColor=#6c8ebf;" parent="1" vertex="1">
          <mxGeometry x="160" y="90" width="670" height="200" as="geometry" />
        </mxCell>
        <mxCell id="Kpnyt2prjJ4kasoExcNX-2" value="&lt;b&gt;length of phrase &amp;lt;int 4b&amp;gt;&lt;/b&gt;" style="rounded=0;whiteSpace=wrap;html=1;fillColor=#dae8fc;strokeColor=#6c8ebf;" parent="1" vertex="1">
          <mxGeometry x="160" y="90" width="310" height="50" as="geometry" />
        </mxCell>
        <mxCell id="Kpnyt2prjJ4kasoExcNX-3" value="" style="rounded=0;whiteSpace=wrap;html=1;fillColor=#d5e8d4;strokeColor=#82b366;" parent="1" vertex="1">
          <mxGeometry x="170" y="150" width="650" height="50" as="geometry" />
        </mxCell>
        <mxCell id="Kpnyt2prjJ4kasoExcNX-4" value="&lt;b&gt;length &lt;br&gt;&amp;lt; varint 1-4b&amp;gt;&lt;/b&gt;" style="rounded=0;whiteSpace=wrap;html=1;fillColor=#A6B5A5;strokeColor=#82b366;" parent="1" vertex="1">
          <mxGeometry x="170" y="150" width="100" height="40" as="geometry" />
        </mxCell>
        <mxCell id="Kpnyt2prjJ4kasoExcNX-5" value="&lt;b&gt;param_name&lt;br&gt;&amp;lt;string&amp;gt;&lt;br&gt;&lt;/b&gt;" style="rounded=0;whiteSpace=wrap;html=1;fillColor=#d5e8d4;strokeColor=#82b366;" parent="1" vertex="1">
          <mxGeometry x="270" y="150" width="84" height="40" as="geometry" />
        </mxCell>
        <mxCell id="Kpnyt2prjJ4kasoExcNX-6" value="&lt;b&gt;version &amp;lt;1b&amp;gt;&lt;/b&gt;" style="rounded=0;whiteSpace=wrap;html=1;fillColor=#dae8fc;strokeColor=#6c8ebf;" parent="1" vertex="1">
          <mxGeometry x="470" y="90" width="220" height="50" as="geometry" />
        </mxCell>
        <mxCell id="Kpnyt2prjJ4kasoExcNX-7" value="&lt;b&gt;param_index &amp;lt;1b&amp;gt;&lt;/b&gt;" style="rounded=0;whiteSpace=wrap;html=1;fillColor=#d5e8d4;strokeColor=#82b366;" parent="1" vertex="1">
          <mxGeometry x="354" y="150" width="80" height="40" as="geometry" />
        </mxCell>
        <mxCell id="Kpnyt2prjJ4kasoExcNX-8" value="&lt;b&gt;param_list &amp;lt;1b&amp;gt;&lt;/b&gt;" style="rounded=0;whiteSpace=wrap;html=1;fillColor=#d5e8d4;strokeColor=#82b366;" parent="1" vertex="1">
          <mxGeometry x="434" y="150" width="70" height="40" as="geometry" />
        </mxCell>
        <mxCell id="Kpnyt2prjJ4kasoExcNX-9" value="&lt;b&gt;param_order &amp;lt;varint 1-4b&amp;gt;&lt;/b&gt;" style="rounded=0;whiteSpace=wrap;html=1;fillColor=#d5e8d4;strokeColor=#82b366;" parent="1" vertex="1">
          <mxGeometry x="504" y="150" width="80" height="40" as="geometry" />
        </mxCell>
        <mxCell id="Kpnyt2prjJ4kasoExcNX-10" value="&lt;b style=&quot;border-color: var(--border-color);&quot;&gt;length&lt;br style=&quot;border-color: var(--border-color);&quot;&gt;&amp;lt; varint 1-4b&amp;gt;&lt;/b&gt;" style="rounded=0;whiteSpace=wrap;html=1;fillColor=#A6B5A5;strokeColor=#82b366;" parent="1" vertex="1">
          <mxGeometry x="584" y="150" width="96" height="40" as="geometry" />
        </mxCell>
        <mxCell id="Kpnyt2prjJ4kasoExcNX-11" value="&lt;b&gt;signature&lt;br&gt;&amp;lt;string&amp;gt;&lt;br&gt;&lt;/b&gt;" style="rounded=0;whiteSpace=wrap;html=1;fillColor=#d5e8d4;strokeColor=#82b366;" parent="1" vertex="1">
          <mxGeometry x="681" y="150" width="79" height="40" as="geometry" />
        </mxCell>
        <mxCell id="Kpnyt2prjJ4kasoExcNX-20" value="&lt;b&gt;&lt;font style=&quot;font-size: 16px;&quot;&gt;...&lt;/font&gt;&lt;/b&gt;" style="rounded=0;whiteSpace=wrap;html=1;fillColor=#E1DDDA;strokeColor=#82b366;" parent="1" vertex="1">
          <mxGeometry x="170" y="200" width="650" height="30" as="geometry" />
        </mxCell>
        <mxCell id="Ho8UqyRTnV_DZ7ehBOYZ-1" value="&lt;font style=&quot;font-size: 17px;&quot;&gt;&lt;b&gt;Param Stream&lt;/b&gt;&lt;/font&gt;" style="text;html=1;strokeColor=none;fillColor=none;align=center;verticalAlign=middle;whiteSpace=wrap;rounded=0;" vertex="1" parent="1">
          <mxGeometry x="420" y="58.33" width="160" height="30" as="geometry" />
        </mxCell>
        <mxCell id="Ho8UqyRTnV_DZ7ehBOYZ-2" value="&lt;b&gt;Phrase #1&lt;/b&gt;" style="text;html=1;strokeColor=none;fillColor=none;align=center;verticalAlign=middle;whiteSpace=wrap;rounded=0;" vertex="1" parent="1">
          <mxGeometry x="720.0046153846152" y="58.329999999999956" width="134.6153846153846" height="113.33333333333334" as="geometry" />
        </mxCell>
        <mxCell id="Ho8UqyRTnV_DZ7ehBOYZ-4" value="" style="rounded=0;whiteSpace=wrap;html=1;fillColor=#d5e8d4;strokeColor=#82b366;" vertex="1" parent="1">
          <mxGeometry x="170" y="230" width="650" height="50" as="geometry" />
        </mxCell>
        <mxCell id="Ho8UqyRTnV_DZ7ehBOYZ-5" value="&lt;b&gt;length &lt;br&gt;&amp;lt; varint 1-4b&amp;gt;&lt;/b&gt;" style="rounded=0;whiteSpace=wrap;html=1;fillColor=#A6B5A5;strokeColor=#82b366;" vertex="1" parent="1">
          <mxGeometry x="170" y="230" width="100" height="40" as="geometry" />
        </mxCell>
        <mxCell id="Ho8UqyRTnV_DZ7ehBOYZ-6" value="&lt;b&gt;param_name&lt;br&gt;&amp;lt;string&amp;gt;&lt;br&gt;&lt;/b&gt;" style="rounded=0;whiteSpace=wrap;html=1;fillColor=#d5e8d4;strokeColor=#82b366;" vertex="1" parent="1">
          <mxGeometry x="270" y="230" width="84" height="40" as="geometry" />
        </mxCell>
        <mxCell id="Ho8UqyRTnV_DZ7ehBOYZ-7" value="&lt;b&gt;param_index &amp;lt;1b&amp;gt;&lt;/b&gt;" style="rounded=0;whiteSpace=wrap;html=1;fillColor=#d5e8d4;strokeColor=#82b366;" vertex="1" parent="1">
          <mxGeometry x="354" y="230" width="80" height="40" as="geometry" />
        </mxCell>
        <mxCell id="Ho8UqyRTnV_DZ7ehBOYZ-8" value="&lt;b&gt;param_list &amp;lt;1b&amp;gt;&lt;/b&gt;" style="rounded=0;whiteSpace=wrap;html=1;fillColor=#d5e8d4;strokeColor=#82b366;" vertex="1" parent="1">
          <mxGeometry x="434" y="230" width="70" height="40" as="geometry" />
        </mxCell>
        <mxCell id="Ho8UqyRTnV_DZ7ehBOYZ-9" value="&lt;b&gt;param_order &amp;lt;varint 1-4b&amp;gt;&lt;/b&gt;" style="rounded=0;whiteSpace=wrap;html=1;fillColor=#d5e8d4;strokeColor=#82b366;" vertex="1" parent="1">
          <mxGeometry x="504" y="230" width="80" height="40" as="geometry" />
        </mxCell>
        <mxCell id="Ho8UqyRTnV_DZ7ehBOYZ-10" value="&lt;b style=&quot;border-color: var(--border-color);&quot;&gt;length&lt;br style=&quot;border-color: var(--border-color);&quot;&gt;&amp;lt; varint 1-4b&amp;gt;&lt;/b&gt;" style="rounded=0;whiteSpace=wrap;html=1;fillColor=#A6B5A5;strokeColor=#82b366;" vertex="1" parent="1">
          <mxGeometry x="584" y="230" width="96" height="40" as="geometry" />
        </mxCell>
        <mxCell id="Ho8UqyRTnV_DZ7ehBOYZ-11" value="&lt;b&gt;signature&lt;br&gt;&amp;lt;string&amp;gt;&lt;br&gt;&lt;/b&gt;" style="rounded=0;whiteSpace=wrap;html=1;fillColor=#d5e8d4;strokeColor=#82b366;" vertex="1" parent="1">
          <mxGeometry x="681" y="230" width="79" height="40" as="geometry" />
        </mxCell>
        <mxCell id="Ho8UqyRTnV_DZ7ehBOYZ-12" value="&lt;font style=&quot;font-size: 9px;&quot;&gt;&lt;b&gt;Param #1&lt;/b&gt;&lt;/font&gt;" style="text;html=1;strokeColor=none;fillColor=none;align=center;verticalAlign=middle;whiteSpace=wrap;rounded=0;" vertex="1" parent="1">
          <mxGeometry x="760" y="155" width="60" height="30" as="geometry" />
        </mxCell>
        <mxCell id="Ho8UqyRTnV_DZ7ehBOYZ-13" value="&lt;font style=&quot;font-size: 9px;&quot;&gt;&lt;b&gt;Param #n&lt;/b&gt;&lt;/font&gt;" style="text;html=1;strokeColor=none;fillColor=none;align=center;verticalAlign=middle;whiteSpace=wrap;rounded=0;" vertex="1" parent="1">
          <mxGeometry x="757.31" y="235" width="60" height="30" as="geometry" />
        </mxCell>
        <mxCell id="Ho8UqyRTnV_DZ7ehBOYZ-14" value="" style="rounded=0;whiteSpace=wrap;html=1;fillColor=#dae8fc;strokeColor=#6c8ebf;" vertex="1" parent="1">
          <mxGeometry x="160" y="298.33" width="671" height="60" as="geometry" />
        </mxCell>
        <mxCell id="Ho8UqyRTnV_DZ7ehBOYZ-15" value="&lt;b&gt;Phrase #n&lt;/b&gt;" style="text;html=1;strokeColor=none;fillColor=none;align=center;verticalAlign=middle;whiteSpace=wrap;rounded=0;" vertex="1" parent="1">
          <mxGeometry x="712.0046153846152" y="268.33" width="134.6153846153846" height="113.33333333333334" as="geometry" />
        </mxCell>
      </root>
    </mxGraphModel>
  </diagram>
</mxfile>
